<svg xmlns="http://www.w3.org/2000/svg" xmlns:xlink="http://www.w3.org/1999/xlink" width="700" zoomAndPan="magnify" viewBox="0 0 525 262.499992" height="350" preserveAspectRatio="xMidYMid meet" version="1.0"><defs><g/><clipPath id="b4c1f4764b"><path d="M 113.128906 101 L 255 101 L 255 225.964844 L 113.128906 225.964844 Z M 113.128906 101 " clip-rule="nonzero"/></clipPath><clipPath id="e893abfc28"><path d="M 254 35.824219 L 396.089844 35.824219 L 396.089844 161 L 254 161 Z M 254 35.824219 " clip-rule="nonzero"/></clipPath></defs><g clip-path="url(#b4c1f4764b)"><path fill="#0652e9" d="M 208.433594 189.707031 L 208.433594 206.933594 L 130.414062 170.6875 L 130.414062 156.707031 L 208.433594 120.460938 L 208.433594 137.691406 L 149.429688 163.535156 L 149.429688 163.859375 Z M 254.769531 101.316406 L 124.292969 101.316406 C 118.132812 101.316406 113.140625 106.308594 113.140625 112.472656 L 113.140625 214.925781 C 113.140625 221.085938 118.132812 226.078125 124.292969 226.078125 L 218.550781 226.078125 L 254.769531 101.316406 " fill-opacity="1" fill-rule="nonzero"/></g><g clip-path="url(#e893abfc28)"><path fill="#38b6ff" d="M 378.917969 105.75 L 300.898438 141.507812 L 300.898438 124.277344 L 361.203125 98.433594 L 361.203125 98.109375 L 300.898438 72.261719 L 300.898438 55.035156 L 378.917969 90.792969 Z M 290.996094 35.890625 L 254.769531 160.652344 L 385.039062 160.652344 C 391.199219 160.652344 396.191406 155.660156 396.191406 149.496094 L 396.191406 47.042969 C 396.191406 40.882812 391.199219 35.890625 385.039062 35.890625 L 290.996094 35.890625 " fill-opacity="1" fill-rule="nonzero"/></g><g fill="#d0dfff" fill-opacity="1"><g transform="translate(61.241607, 79.365243)"><g><path d="M 18.5625 0.328125 C 15.457031 0.328125 12.609375 -0.390625 10.015625 -1.828125 C 7.421875 -3.273438 5.363281 -5.296875 3.84375 -7.890625 C 2.320312 -10.484375 1.5625 -13.398438 1.5625 -16.640625 C 1.5625 -19.867188 2.320312 -22.769531 3.84375 -25.34375 C 5.363281 -27.925781 7.421875 -29.9375 10.015625 -31.375 C 12.609375 -32.820312 15.457031 -33.546875 18.5625 -33.546875 C 21.675781 -33.546875 24.53125 -32.820312 27.125 -31.375 C 29.71875 -29.9375 31.757812 -27.925781 33.25 -25.34375 C 34.738281 -22.769531 35.484375 -19.867188 35.484375 -16.640625 C 35.484375 -13.398438 34.726562 -10.484375 33.21875 -7.890625 C 31.71875 -5.296875 29.675781 -3.273438 27.09375 -1.828125 C 24.519531 -0.390625 21.675781 0.328125 18.5625 0.328125 Z M 18.5625 -7.015625 C 21.207031 -7.015625 23.320312 -7.894531 24.90625 -9.65625 C 26.488281 -11.414062 27.28125 -13.742188 27.28125 -16.640625 C 27.28125 -19.554688 26.488281 -21.882812 24.90625 -23.625 C 23.320312 -25.375 21.207031 -26.25 18.5625 -26.25 C 15.894531 -26.25 13.765625 -25.382812 12.171875 -23.65625 C 10.585938 -21.925781 9.796875 -19.585938 9.796875 -16.640625 C 9.796875 -13.710938 10.585938 -11.375 12.171875 -9.625 C 13.765625 -7.882812 15.894531 -7.015625 18.5625 -7.015625 Z M 18.5625 -7.015625 "/></g></g></g><g fill="#d0dfff" fill-opacity="1"><g transform="translate(100.343466, 79.365243)"><g><path d="M 15.3125 -33.078125 C 18.800781 -33.078125 21.847656 -32.382812 24.453125 -31 C 27.066406 -29.625 29.085938 -27.6875 30.515625 -25.1875 C 31.941406 -22.6875 32.65625 -19.804688 32.65625 -16.546875 C 32.65625 -13.304688 31.941406 -10.425781 30.515625 -7.90625 C 29.085938 -5.394531 27.0625 -3.445312 24.4375 -2.0625 C 21.8125 -0.6875 18.769531 0 15.3125 0 L 2.921875 0 L 2.921875 -33.078125 Z M 14.796875 -6.96875 C 17.847656 -6.96875 20.21875 -7.800781 21.90625 -9.46875 C 23.601562 -11.132812 24.453125 -13.492188 24.453125 -16.546875 C 24.453125 -19.585938 23.601562 -21.957031 21.90625 -23.65625 C 20.21875 -25.351562 17.847656 -26.203125 14.796875 -26.203125 L 10.984375 -26.203125 L 10.984375 -6.96875 Z M 14.796875 -6.96875 "/></g></g></g><g fill="#d0dfff" fill-opacity="1"><g transform="translate(136.665862, 79.365243)"><g><path d="M 10.984375 -26.625 L 10.984375 -19.9375 L 21.765625 -19.9375 L 21.765625 -13.71875 L 10.984375 -13.71875 L 10.984375 -6.453125 L 23.1875 -6.453125 L 23.1875 0 L 2.921875 0 L 2.921875 -33.078125 L 23.1875 -33.078125 L 23.1875 -26.625 Z M 10.984375 -26.625 "/></g></g></g><g fill="#d0dfff" fill-opacity="1"><g transform="translate(164.225913, 79.365243)"><g><path d="M 14.890625 0.328125 C 12.472656 0.328125 10.304688 -0.0625 8.390625 -0.84375 C 6.472656 -1.632812 4.941406 -2.796875 3.796875 -4.328125 C 2.648438 -5.867188 2.046875 -7.722656 1.984375 -9.890625 L 10.5625 -9.890625 C 10.6875 -8.671875 11.109375 -7.738281 11.828125 -7.09375 C 12.546875 -6.445312 13.488281 -6.125 14.65625 -6.125 C 15.851562 -6.125 16.796875 -6.398438 17.484375 -6.953125 C 18.171875 -7.503906 18.515625 -8.265625 18.515625 -9.234375 C 18.515625 -10.054688 18.238281 -10.734375 17.6875 -11.265625 C 17.144531 -11.796875 16.472656 -12.234375 15.671875 -12.578125 C 14.867188 -12.921875 13.726562 -13.316406 12.25 -13.765625 C 10.113281 -14.421875 8.367188 -15.078125 7.015625 -15.734375 C 5.671875 -16.398438 4.507812 -17.375 3.53125 -18.65625 C 2.5625 -19.945312 2.078125 -21.628906 2.078125 -23.703125 C 2.078125 -26.785156 3.191406 -29.195312 5.421875 -30.9375 C 7.648438 -32.675781 10.554688 -33.546875 14.140625 -33.546875 C 17.785156 -33.546875 20.722656 -32.675781 22.953125 -30.9375 C 25.179688 -29.195312 26.375 -26.769531 26.53125 -23.65625 L 17.8125 -23.65625 C 17.75 -24.726562 17.351562 -25.566406 16.625 -26.171875 C 15.90625 -26.785156 14.984375 -27.09375 13.859375 -27.09375 C 12.878906 -27.09375 12.09375 -26.832031 11.5 -26.3125 C 10.90625 -25.800781 10.609375 -25.054688 10.609375 -24.078125 C 10.609375 -23.015625 11.109375 -22.179688 12.109375 -21.578125 C 13.117188 -20.984375 14.691406 -20.34375 16.828125 -19.65625 C 18.960938 -18.925781 20.695312 -18.234375 22.03125 -17.578125 C 23.363281 -16.921875 24.515625 -15.960938 25.484375 -14.703125 C 26.460938 -13.441406 26.953125 -11.820312 26.953125 -9.84375 C 26.953125 -7.957031 26.472656 -6.242188 25.515625 -4.703125 C 24.554688 -3.171875 23.164062 -1.945312 21.34375 -1.03125 C 19.519531 -0.125 17.367188 0.328125 14.890625 0.328125 Z M 14.890625 0.328125 "/></g></g></g><g fill="#d0dfff" fill-opacity="1"><g transform="translate(195.272068, 79.365243)"><g><path d="M 26.71875 -33.078125 L 26.71875 -26.625 L 17.953125 -26.625 L 17.953125 0 L 9.890625 0 L 9.890625 -26.625 L 1.125 -26.625 L 1.125 -33.078125 Z M 26.71875 -33.078125 "/></g></g></g><g fill="#d0dfff" fill-opacity="1"><g transform="translate(225.187588, 79.365243)"><g><path d="M 18.5625 0.328125 C 15.457031 0.328125 12.609375 -0.390625 10.015625 -1.828125 C 7.421875 -3.273438 5.363281 -5.296875 3.84375 -7.890625 C 2.320312 -10.484375 1.5625 -13.398438 1.5625 -16.640625 C 1.5625 -19.867188 2.320312 -22.769531 3.84375 -25.34375 C 5.363281 -27.925781 7.421875 -29.9375 10.015625 -31.375 C 12.609375 -32.820312 15.457031 -33.546875 18.5625 -33.546875 C 21.675781 -33.546875 24.53125 -32.820312 27.125 -31.375 C 29.71875 -29.9375 31.757812 -27.925781 33.25 -25.34375 C 34.738281 -22.769531 35.484375 -19.867188 35.484375 -16.640625 C 35.484375 -13.398438 34.726562 -10.484375 33.21875 -7.890625 C 31.71875 -5.296875 29.675781 -3.273438 27.09375 -1.828125 C 24.519531 -0.390625 21.675781 0.328125 18.5625 0.328125 Z M 18.5625 -7.015625 C 21.207031 -7.015625 23.320312 -7.894531 24.90625 -9.65625 C 26.488281 -11.414062 27.28125 -13.742188 27.28125 -16.640625 C 27.28125 -19.554688 26.488281 -21.882812 24.90625 -23.625 C 23.320312 -25.375 21.207031 -26.25 18.5625 -26.25 C 15.894531 -26.25 13.765625 -25.382812 12.171875 -23.65625 C 10.585938 -21.925781 9.796875 -19.585938 9.796875 -16.640625 C 9.796875 -13.710938 10.585938 -11.375 12.171875 -9.625 C 13.765625 -7.882812 15.894531 -7.015625 18.5625 -7.015625 Z M 18.5625 -7.015625 "/></g></g></g><g fill="#d0dfff" fill-opacity="1"><g transform="translate(235.025025, 213.766352)"><g><path d="M 28.140625 -22.4375 C 28.140625 -20.519531 27.695312 -18.765625 26.8125 -17.171875 C 25.9375 -15.585938 24.585938 -14.304688 22.765625 -13.328125 C 20.941406 -12.359375 18.675781 -11.875 15.96875 -11.875 L 10.984375 -11.875 L 10.984375 0 L 2.921875 0 L 2.921875 -33.078125 L 15.96875 -33.078125 C 18.613281 -33.078125 20.847656 -32.617188 22.671875 -31.703125 C 24.492188 -30.796875 25.859375 -29.539062 26.765625 -27.9375 C 27.679688 -26.34375 28.140625 -24.507812 28.140625 -22.4375 Z M 15.359375 -18.28125 C 16.898438 -18.28125 18.046875 -18.640625 18.796875 -19.359375 C 19.554688 -20.085938 19.9375 -21.113281 19.9375 -22.4375 C 19.9375 -23.75 19.554688 -24.765625 18.796875 -25.484375 C 18.046875 -26.210938 16.898438 -26.578125 15.359375 -26.578125 L 10.984375 -26.578125 L 10.984375 -18.28125 Z M 15.359375 -18.28125 "/></g></g></g><g fill="#d0dfff" fill-opacity="1"><g transform="translate(266.495151, 213.766352)"><g><path d="M 18.5625 0.328125 C 15.457031 0.328125 12.609375 -0.390625 10.015625 -1.828125 C 7.421875 -3.273438 5.363281 -5.296875 3.84375 -7.890625 C 2.320312 -10.484375 1.5625 -13.398438 1.5625 -16.640625 C 1.5625 -19.867188 2.320312 -22.769531 3.84375 -25.34375 C 5.363281 -27.925781 7.421875 -29.9375 10.015625 -31.375 C 12.609375 -32.820312 15.457031 -33.546875 18.5625 -33.546875 C 21.675781 -33.546875 24.53125 -32.820312 27.125 -31.375 C 29.71875 -29.9375 31.757812 -27.925781 33.25 -25.34375 C 34.738281 -22.769531 35.484375 -19.867188 35.484375 -16.640625 C 35.484375 -13.398438 34.726562 -10.484375 33.21875 -7.890625 C 31.71875 -5.296875 29.675781 -3.273438 27.09375 -1.828125 C 24.519531 -0.390625 21.675781 0.328125 18.5625 0.328125 Z M 18.5625 -7.015625 C 21.207031 -7.015625 23.320312 -7.894531 24.90625 -9.65625 C 26.488281 -11.414062 27.28125 -13.742188 27.28125 -16.640625 C 27.28125 -19.554688 26.488281 -21.882812 24.90625 -23.625 C 23.320312 -25.375 21.207031 -26.25 18.5625 -26.25 C 15.894531 -26.25 13.765625 -25.382812 12.171875 -23.65625 C 10.585938 -21.925781 9.796875 -19.585938 9.796875 -16.640625 C 9.796875 -13.710938 10.585938 -11.375 12.171875 -9.625 C 13.765625 -7.882812 15.894531 -7.015625 18.5625 -7.015625 Z M 18.5625 -7.015625 "/></g></g></g><g fill="#d0dfff" fill-opacity="1"><g transform="translate(305.597011, 213.766352)"><g><path d="M 10.984375 -6.21875 L 21.53125 -6.21875 L 21.53125 0 L 2.921875 0 L 2.921875 -33.078125 L 10.984375 -33.078125 Z M 10.984375 -6.21875 "/></g></g></g><g fill="#d0dfff" fill-opacity="1"><g transform="translate(330.142061, 213.766352)"><g><path d="M 23.515625 -5.84375 L 11.171875 -5.84375 L 9.1875 0 L 0.75 0 L 12.71875 -33.078125 L 22.046875 -33.078125 L 34.03125 0 L 25.5 0 Z M 21.4375 -12.0625 L 17.34375 -24.171875 L 13.296875 -12.0625 Z M 21.4375 -12.0625 "/></g></g></g><g fill="#d0dfff" fill-opacity="1"><g transform="translate(366.935558, 213.766352)"><g><path d="M 32.515625 0 L 24.453125 0 L 10.984375 -20.40625 L 10.984375 0 L 2.921875 0 L 2.921875 -33.078125 L 10.984375 -33.078125 L 24.453125 -12.578125 L 24.453125 -33.078125 L 32.515625 -33.078125 Z M 32.515625 0 "/></g></g></g><g fill="#d0dfff" fill-opacity="1"><g transform="translate(404.435688, 213.766352)"><g><path d="M 1.5625 -16.59375 C 1.5625 -19.851562 2.265625 -22.765625 3.671875 -25.328125 C 5.085938 -27.890625 7.0625 -29.882812 9.59375 -31.3125 C 12.125 -32.738281 14.988281 -33.453125 18.1875 -33.453125 C 22.113281 -33.453125 25.472656 -32.414062 28.265625 -30.34375 C 31.066406 -28.269531 32.941406 -25.441406 33.890625 -21.859375 L 25.015625 -21.859375 C 24.359375 -23.242188 23.425781 -24.296875 22.21875 -25.015625 C 21.007812 -25.742188 19.632812 -26.109375 18.09375 -26.109375 C 15.613281 -26.109375 13.601562 -25.242188 12.0625 -23.515625 C 10.519531 -21.785156 9.75 -19.476562 9.75 -16.59375 C 9.75 -13.695312 10.519531 -11.382812 12.0625 -9.65625 C 13.601562 -7.925781 15.613281 -7.0625 18.09375 -7.0625 C 19.632812 -7.0625 21.007812 -7.421875 22.21875 -8.140625 C 23.425781 -8.867188 24.359375 -9.925781 25.015625 -11.3125 L 33.890625 -11.3125 C 32.941406 -7.726562 31.066406 -4.90625 28.265625 -2.84375 C 25.472656 -0.789062 22.113281 0.234375 18.1875 0.234375 C 14.988281 0.234375 12.125 -0.476562 9.59375 -1.90625 C 7.0625 -3.332031 5.085938 -5.316406 3.671875 -7.859375 C 2.265625 -10.410156 1.5625 -13.320312 1.5625 -16.59375 Z M 1.5625 -16.59375 "/></g></g></g><g fill="#d0dfff" fill-opacity="1"><g transform="translate(442.406905, 213.766352)"><g><path d="M 18.5625 0.328125 C 15.457031 0.328125 12.609375 -0.390625 10.015625 -1.828125 C 7.421875 -3.273438 5.363281 -5.296875 3.84375 -7.890625 C 2.320312 -10.484375 1.5625 -13.398438 1.5625 -16.640625 C 1.5625 -19.867188 2.320312 -22.769531 3.84375 -25.34375 C 5.363281 -27.925781 7.421875 -29.9375 10.015625 -31.375 C 12.609375 -32.820312 15.457031 -33.546875 18.5625 -33.546875 C 21.675781 -33.546875 24.53125 -32.820312 27.125 -31.375 C 29.71875 -29.9375 31.757812 -27.925781 33.25 -25.34375 C 34.738281 -22.769531 35.484375 -19.867188 35.484375 -16.640625 C 35.484375 -13.398438 34.726562 -10.484375 33.21875 -7.890625 C 31.71875 -5.296875 29.675781 -3.273438 27.09375 -1.828125 C 24.519531 -0.390625 21.675781 0.328125 18.5625 0.328125 Z M 18.5625 -7.015625 C 21.207031 -7.015625 23.320312 -7.894531 24.90625 -9.65625 C 26.488281 -11.414062 27.28125 -13.742188 27.28125 -16.640625 C 27.28125 -19.554688 26.488281 -21.882812 24.90625 -23.625 C 23.320312 -25.375 21.207031 -26.25 18.5625 -26.25 C 15.894531 -26.25 13.765625 -25.382812 12.171875 -23.65625 C 10.585938 -21.925781 9.796875 -19.585938 9.796875 -16.640625 C 9.796875 -13.710938 10.585938 -11.375 12.171875 -9.625 C 13.765625 -7.882812 15.894531 -7.015625 18.5625 -7.015625 Z M 18.5625 -7.015625 "/></g></g></g><g fill="#d0dfff" fill-opacity="1"><g transform="translate(481.516718, 213.766352)"><g/></g></g></svg>